Coordinates
version=1
nRows=16
nColumns=36
inDegrees=yes

Units are S.I. units (second, meters, Newtons, ...)
If the header above contains a line with 'inDegrees', this indicates whether rotational values are in degrees (yes) or radians (no).

endheader
time	pelvis_tilt	pelvis_list	pelvis_rotation	pelvis_tx	pelvis_ty	pelvis_tz	hip_flexion_r	hip_adduction_r	hip_rotation_r	knee_angle_r	knee_angle_r_beta	ankle_angle_r	subtalar_angle_r	mtp_angle_r	hip_flexion_l	hip_adduction_l	hip_rotation_l	knee_angle_l	knee_angle_l_beta	ankle_angle_l	subtalar_angle_l	mtp_angle_l	lumbar_extension	lumbar_bending	lumbar_rotation	arm_flex_r	arm_add_r	arm_rot_r	elbow_flex_r	pro_sup_r	arm_flex_l	arm_add_l	arm_rot_l	elbow_flex_l	pro_sup_l
      0.35000000	     -2.08098445	     -1.31082345	      2.25584380	      0.24426977	      1.04608691	     -0.16559407	      0.85670576	      8.65020136	     -8.42629303	      0.46113821	      0.00804838	      3.65255399	      9.01208830	     -6.15706529	     30.24861506	     -3.25362260	     -0.53620632	     47.41937897	      0.82762429	      2.24790347	    -12.66601745	     -6.15706529	    -14.44006022	    -13.74196183	      3.02007239	     -5.07414972	     -7.83476693	     -7.97378142	     55.55970553	    108.74704298	     -7.94004520	     -7.84312378	    -21.21599490	     44.58538138	     94.18535580
      0.36000000	     -2.02872731	     -1.35031208	      1.69326682	      0.25613078	      1.04559140	     -0.16390924	     -0.00374615	      8.80792294	     -8.13918984	      0.44772305	      0.00781424	      4.40726305	      9.48768731	     -6.18999263	     30.24544708	     -3.57801718	     -0.99734585	     43.69233046	      0.76257502	      1.72879445	    -12.64382553	     -6.18999263	    -14.55736087	    -14.41028665	      3.84761854	     -4.92447937	     -8.30199454	     -7.94668860	     56.98589310	    108.57603275	     -8.39573940	     -7.50855464	    -21.71637757	     42.62443448	     94.01581321
      0.37000000	     -2.05722654	     -1.44256308	      1.14834087	      0.26808831	      1.04471896	     -0.16226635	     -0.78541919	      9.00308188	     -7.84999758	      0.44121021	      0.00770057	      5.15110784	      9.87863330	     -6.21299704	     30.24085304	     -3.97624213	     -1.59271703	     39.79974742	      0.69463663	      1.06355900	    -12.27285940	     -6.21299704	    -14.56838424	    -15.04703046	      4.62762602	     -4.79071530	     -8.79917131	     -7.84083881	     58.34069345	    108.44121173	     -8.95485374	     -7.23024318	    -22.25106832	     40.86982552	     93.84964571
      0.38000000	     -2.21397630	     -1.68695424	      0.68176982	      0.27995604	      1.04334624	     -0.16078508	     -1.43511642	      9.33461411	     -7.42311187	      0.42384498	      0.00739749	      5.70004768	     10.30975503	     -6.22731140	     30.33075517	     -4.44742680	     -2.01866491	     35.82245601	      0.62521980	      0.40293260	    -11.60943011	     -6.22731140	    -14.44827964	    -15.49176433	      5.24678548	     -4.60994731	     -9.30738961	     -7.74318250	     59.63418833	    108.33995302	     -9.66875891	     -6.95289728	    -22.72557989	     39.41750659	     93.69323024
      0.39000000	     -1.94472977	     -1.87916364	      0.19068252	      0.29226626	      1.04234116	     -0.15940934	     -2.57134611	      9.58828812	     -7.41002013	      0.42043913	      0.00733805	      6.70383800	     11.04371060	     -6.26076674	     29.78397291	     -4.90628520	     -2.80947951	     31.61705415	      0.55182169	     -0.71608098	    -11.25499796	     -6.26076674	    -14.76879127	    -15.99578512	      6.21470405	     -4.72322982	     -9.87270849	     -7.87336778	     61.17065615	    108.10572215	     -9.89556843	     -6.66655687	    -23.30864168	     37.39585243	     93.65829243
      0.40000000	     -1.98365355	     -2.13181470	     -0.15655691	      0.30456306	      1.04062646	     -0.15828633	     -3.36042760	      9.88761712	     -7.42819615	      0.42884490	      0.00748476	      7.52796243	     11.77676403	     -6.31174499	     29.57686499	     -5.30459910	     -3.43761567	     27.45346094	      0.47915328	     -1.56721830	    -10.26892485	     -6.31174499	    -14.76799498	    -16.41141736	      6.99004191	     -4.90184417	    -10.37237710	     -8.10817851	     62.66454742	    107.78359766	    -10.40191026	     -6.47489292	    -23.58158769	     35.80345314	     93.91480219
      0.41000000	     -2.03341484	     -2.48778306	     -0.48356536	      0.31681003	      1.03858698	     -0.15720604	     -4.14654687	     10.29394875	     -7.11032635	      0.43815391	      0.00764723	      8.25957496	     12.02787233	     -6.34038026	     29.38711451	     -5.80376199	     -4.13243736	     23.38538455	      0.40815196	     -2.13393292	     -8.68271772	     -6.34038026	    -14.76263854	    -16.70951610	      7.59015559	     -4.90237248	    -10.96530539	     -8.01216638	     63.91826158	    107.62309336	    -11.01450115	     -6.24108844	    -23.98838350	     34.45537411	     93.97059876
      0.42000000	     -2.11141481	     -2.84691082	     -0.68166233	      0.32922244	      1.03622989	     -0.15641632	     -4.89387715	     10.68801665	     -6.98133940	      0.46801347	      0.00816838	      9.02423724	     12.45284805	     -6.41000864	     29.21270470	     -6.20985352	     -4.71845042	     19.41743847	      0.33889823	     -2.31055293	     -6.55131869	     -6.41000864	    -14.73828933	    -16.96351640	      8.23033065	     -5.14230626	    -11.48873285	     -8.24871983	     65.32402890	    107.28072824	    -11.57544696	     -6.04795435	    -24.18366482	     33.13960274	     94.50169355
      0.43000000	     -2.22434615	     -3.21005590	     -0.83385381	      0.34160678	      1.03362411	     -0.15576725	     -5.59351385	     11.08957730	     -6.59207678	      0.50986922	      0.00889890	      9.70668297	     12.32439530	     -6.43281929	     29.04219902	     -6.54513304	     -5.11777745	     15.52265166	      0.27092138	     -2.53363642	     -4.46202627	     -6.43281929	    -14.68818322	    -17.20305516	      8.63204604	     -5.19862724	    -12.07815616	     -8.13256448	     66.43649703	    107.18840377	    -12.28738796	     -5.81176725	    -24.48971050	     32.13431273	     94.53152916
      0.44000000	     -2.33052328	     -3.59611657	     -0.91333858	      0.35408987	      1.03080284	     -0.15526110	     -6.28849270	     11.51527930	     -6.21407652	      0.57333721	      0.01000662	     10.36348763	     12.21460196	     -6.45897022	     28.85896425	     -6.85621527	     -5.34504072	     11.81108241	      0.20614228	     -2.36234563	     -2.00078573	     -6.45897022	    -14.66266663	    -17.39777855	      9.03252555	     -5.36492163	    -12.58922867	     -8.22182227	     67.59897528	    107.09114018	    -12.98222707	     -5.59201469	    -24.68220829	     31.28146860	     94.63239306
      0.45000000	     -2.50253827	     -3.98324210	     -0.92345859	      0.36663243	      1.02769773	     -0.15496200	     -6.87829350	     11.93511489	     -5.81390724	      0.69551039	      0.01213895	     11.04786975	     11.91976145	     -6.47802489	     28.73752400	     -7.11701474	     -5.24797419	      8.30611117	      0.14496899	     -2.11736602	      0.34981162	     -6.47802489	    -14.55435379	    -17.55287308	      9.39016113	     -5.60078147	    -13.13047634	     -8.31335116	     68.63670045	    106.98409859	    -13.73606814	     -5.37771336	    -24.80625317	     30.64044353	     94.65894983
      0.46000000	     -2.51253198	     -4.36122516	     -0.95072878	      0.37932918	      1.02467832	     -0.15463903	     -7.62083612	     12.34234256	     -5.31341762	      0.87609496	      0.01529074	     11.62639751	     11.53580167	     -6.50548687	     28.47157783	     -7.41619549	     -5.29468553	      5.18739225	      0.09053707	     -1.55000638	      2.86715235	     -6.50548687	    -14.64287848	    -17.71175116	      9.79410418	     -5.92553685	    -13.54896852	     -8.67060938	     69.80174270	    106.89208370	    -14.43918555	     -5.18646742	    -24.81008661	     30.03307639	     94.79597563
      0.47000000	     -2.58984658	     -4.78010042	     -0.95990066	      0.39209379	      1.02146267	     -0.15441374	     -8.24134576	     12.78790099	     -4.83187171	      1.15860080	      0.02022140	     12.21488398	     11.03770502	     -6.53692223	     28.42568730	     -7.76759287	     -5.36039078	      2.68217559	      0.04681280	     -0.76189112	      5.18371825	     -6.53692223	    -14.63128904	    -17.80752060	     10.25321871	     -6.35150146	    -13.91621828	     -9.10210267	     70.90144652	    106.84352501	    -15.13682737	     -5.01246052	    -24.71684042	     29.55164652	     94.98363589
      0.48000000	     -2.71737598	     -5.26073027	     -0.96975108	      0.40486719	      1.01812409	     -0.15416698	     -8.72269895	     13.29862669	     -4.35843865	      1.60220180	      0.02796370	     12.77377522	     10.44958380	     -6.57605479	     28.77949204	     -8.24113091	     -5.90631228	      1.25811378	      0.02195823	      0.53533378	      7.67349941	     -6.57605479	    -14.55659934	    -17.82823429	     10.76415997	     -6.86678281	    -14.23998852	     -9.62792889	     71.92615359	    106.82626581	    -15.81516680	     -4.85657400	    -24.56438288	     29.13850855	     95.19113596
      0.49000000	     -2.83932681	     -5.71942098	     -0.97954336	      0.41763364	      1.01481110	     -0.15399222	     -9.10806363	     13.76747952	     -4.04367790	      2.23573080	      0.03902086	     13.33894551	      9.95404080	     -6.60710032	     29.36183943	     -8.70686345	     -6.62834686	      0.74112513	      0.01293507	      1.93034813	      9.57400446	     -6.60710032	    -14.49677675	    -17.86522016	     11.19111783	     -7.33639235	    -14.52595574	    -10.05800731	     72.80423469	    106.83726566	    -16.50418518	     -4.68012734	    -24.48926877	     28.82716484	     95.27586309
      0.50000000	     -2.78970594	     -6.12068353	     -0.94594478	      0.43051925	      1.01186992	     -0.15403265	     -9.60500535	     14.14192518	     -3.93815317	      2.99610960	      0.05229198	     13.83531965	      9.61655326	     -6.61405704	     29.70632961	     -9.05608761	     -6.80702926	      0.56997882	      0.00994801	      2.72833130	      9.69982023	     -6.61405704	    -14.64145002	    -17.94297755	     11.30734760	     -7.54761384	    -14.78410198	    -10.21962392	     73.38930022	    106.83991712	    -17.26376226	     -4.45059846	    -24.50584822	     28.55956439	     95.24123528
